<svg width="16" height="16" viewBox="0 0 16 16" fill="none" xmlns="http://www.w3.org/2000/svg">
<path d="M14.4324 13.25C13.4806 11.6044 12.0137 10.4244 10.3018 9.865C11.1486 9.36091 11.8065 8.5928 12.1744 7.67862C12.5424 6.76444 12.6001 5.75475 12.3387 4.8046C12.0773 3.85444 11.5112 3.01637 10.7274 2.41908C9.94359 1.82178 8.98538 1.4983 7.99993 1.4983C7.01447 1.4983 6.05626 1.82178 5.27244 2.41908C4.48863 3.01637 3.92255 3.85444 3.66114 4.8046C3.39973 5.75475 3.45744 6.76444 3.82542 7.67862C4.19339 8.5928 4.85128 9.36091 5.69805 9.865C3.98618 10.4237 2.5193 11.6037 1.56743 13.25C1.53252 13.3069 1.50936 13.3702 1.49933 13.4363C1.4893 13.5023 1.49259 13.5696 1.509 13.6343C1.52542 13.6991 1.55463 13.7598 1.59492 13.8131C1.63521 13.8663 1.68575 13.911 1.74357 13.9444C1.80138 13.9778 1.8653 13.9992 1.93156 14.0075C1.99781 14.0158 2.06505 14.0108 2.12931 13.9926C2.19358 13.9745 2.25356 13.9437 2.30573 13.9021C2.3579 13.8604 2.40119 13.8087 2.43305 13.75C3.61055 11.715 5.6918 10.5 7.99993 10.5C10.3081 10.5 12.3893 11.715 13.5668 13.75C13.5987 13.8087 13.642 13.8604 13.6941 13.9021C13.7463 13.9437 13.8063 13.9745 13.8705 13.9926C13.9348 14.0108 14.002 14.0158 14.0683 14.0075C14.1345 13.9992 14.1985 13.9778 14.2563 13.9444C14.3141 13.911 14.3646 13.8663 14.4049 13.8131C14.4452 13.7598 14.4744 13.6991 14.4908 13.6343C14.5073 13.5696 14.5106 13.5023 14.5005 13.4363C14.4905 13.3702 14.4673 13.3069 14.4324 13.25ZM4.49993 6C4.49993 5.30776 4.7052 4.63108 5.08978 4.0555C5.47437 3.47993 6.02099 3.03133 6.66053 2.76642C7.30008 2.50151 8.00381 2.4322 8.68274 2.56725C9.36168 2.7023 9.98532 3.03564 10.4748 3.52513C10.9643 4.01461 11.2976 4.63825 11.4327 5.31718C11.5677 5.99612 11.4984 6.69985 11.2335 7.33939C10.9686 7.97893 10.52 8.52556 9.94442 8.91014C9.36885 9.29473 8.69216 9.5 7.99993 9.5C7.07197 9.49901 6.18231 9.12994 5.52615 8.47378C4.86999 7.81761 4.50092 6.92795 4.49993 6Z" fill="#212529"/>
</svg>
