<svg width="24" height="24" viewBox="0 0 24 24" fill="none" xmlns="http://www.w3.org/2000/svg">
<path d="M10.9922 14.805C11.9974 14.1358 12.7606 13.1609 13.1688 12.0244C13.5771 10.888 13.6088 9.65027 13.2592 8.4944C12.9096 7.33853 12.1974 6.32584 11.2278 5.60608C10.2581 4.88632 9.08262 4.49771 7.87505 4.49771C6.66748 4.49771 5.49196 4.88632 4.52233 5.60608C3.55271 6.32584 2.84045 7.33853 2.49088 8.4944C2.14132 9.65027 2.17301 10.888 2.58126 12.0244C2.98952 13.1609 3.75267 14.1358 4.75786 14.805C2.93957 15.4752 1.38671 16.7153 0.330984 18.3403C0.275499 18.4228 0.236959 18.5154 0.217604 18.6129C0.198249 18.7104 0.198466 18.8108 0.218241 18.9082C0.238017 19.0056 0.276957 19.0981 0.332798 19.1803C0.388639 19.2626 0.460266 19.3329 0.543518 19.3872C0.626769 19.4415 0.719983 19.4787 0.817742 19.4966C0.9155 19.5146 1.01585 19.5129 1.11297 19.4918C1.21008 19.4706 1.30202 19.4304 1.38344 19.3733C1.46486 19.3163 1.53413 19.2437 1.58723 19.1597C2.26822 18.1123 3.20007 17.2516 4.29814 16.6558C5.39622 16.06 6.62574 15.7479 7.87505 15.7479C9.12436 15.7479 10.3539 16.06 11.452 16.6558C12.55 17.2516 13.4819 18.1123 14.1629 19.1597C14.2729 19.3232 14.4428 19.4368 14.6359 19.476C14.829 19.5152 15.0298 19.4768 15.1949 19.3692C15.3599 19.2615 15.476 19.0933 15.5179 18.9007C15.5599 18.7082 15.5244 18.5069 15.4191 18.3403C14.3634 16.7153 12.8105 15.4752 10.9922 14.805ZM3.75005 10.125C3.75005 9.30915 3.99197 8.51162 4.44523 7.83327C4.8985 7.15491 5.54273 6.6262 6.29648 6.31399C7.05022 6.00178 7.87962 5.92009 8.6798 6.07925C9.47997 6.23842 10.215 6.63129 10.7919 7.20818C11.3688 7.78507 11.7616 8.52007 11.9208 9.32025C12.08 10.1204 11.9983 10.9498 11.6861 11.7036C11.3738 12.4573 10.8451 13.1015 10.1668 13.5548C9.48842 14.0081 8.6909 14.25 7.87505 14.25C6.78141 14.2488 5.73292 13.8138 4.9596 13.0404C4.18628 12.2671 3.75129 11.2186 3.75005 10.125ZM23.4507 19.3781C23.2841 19.4868 23.0812 19.5248 22.8865 19.4838C22.6919 19.4428 22.5215 19.3263 22.4129 19.1597C21.7327 18.1117 20.801 17.2506 19.7027 16.655C18.6044 16.0595 17.3744 15.7483 16.125 15.75C15.9261 15.75 15.7354 15.671 15.5947 15.5303C15.4541 15.3897 15.375 15.1989 15.375 15C15.375 14.8011 15.4541 14.6103 15.5947 14.4697C15.7354 14.329 15.9261 14.25 16.125 14.25C16.7325 14.2494 17.3324 14.1147 17.8817 13.8554C18.4311 13.5961 18.9164 13.2187 19.303 12.7502C19.6896 12.2816 19.9679 11.7334 20.1181 11.1448C20.2683 10.5562 20.2866 9.94165 20.1718 9.34513C20.0569 8.74862 19.8117 8.18483 19.4537 7.69405C19.0958 7.20328 18.6338 6.79763 18.1008 6.50609C17.5679 6.21455 16.9771 6.04432 16.3708 6.00756C15.7644 5.97079 15.1574 6.06841 14.5932 6.29343C14.5012 6.3332 14.4021 6.35413 14.3019 6.35498C14.2017 6.35582 14.1023 6.33657 14.0096 6.29836C13.917 6.26015 13.8329 6.20376 13.7624 6.13251C13.6919 6.06126 13.6364 5.97661 13.5992 5.88355C13.562 5.79049 13.5438 5.69091 13.5457 5.5907C13.5476 5.49049 13.5696 5.39168 13.6103 5.3001C13.6511 5.20853 13.7098 5.12606 13.7829 5.05755C13.8561 4.98904 13.9422 4.93589 14.0363 4.90124C15.3277 4.38623 16.764 4.3677 18.0682 4.84922C19.3725 5.33074 20.4522 6.2782 21.099 7.50882C21.7459 8.73944 21.9141 10.166 21.5713 11.5134C21.2284 12.8607 20.3987 14.0333 19.2422 14.805C21.0605 15.4752 22.6134 16.7153 23.6691 18.3403C23.7777 18.5069 23.8158 18.7098 23.7748 18.9044C23.7338 19.0991 23.6172 19.2694 23.4507 19.3781Z" fill="#1064DF"/>
</svg>
